<svg xmlns="http://www.w3.org/2000/svg" viewBox="0 0 251.17 145.69"><title>资源 1</title><g id="图层_2" data-name="图层 2"><g id="图层_1-2" data-name="图层 1"><path d="M10.21,123.67c2.56,0,4.47,1.39,4.47,2.63h5.74c0-4.7-4.48-8.38-10.21-8.38S0,121.6,0,126.3s4.49,8.38,10.21,8.38c2.56,0,4.47,1.39,4.47,2.63s-1.91,2.63-4.47,2.63-4.46-1.39-4.46-2.63H0c0,4.7,4.49,8.38,10.21,8.38s10.21-3.68,10.21-8.38-4.48-8.38-10.21-8.38c-2.55,0-4.46-1.39-4.46-2.63S7.66,123.67,10.21,123.67Z"/><path d="M28.82,111.29H23.07v21.17a12.36,12.36,0,0,0,12.35,12.35h6.16v-5.75H35.42a6.61,6.61,0,0,1-6.6-6.6v-8.92H41.58V117.8H28.82Z"/><path d="M58,117.92a13.8,13.8,0,1,0,8.06,25v2.75h5.74V131.72A13.81,13.81,0,0,0,58,117.92Zm0,21.85a8.05,8.05,0,1,1,8.06-8.05A8.06,8.06,0,0,1,58,139.77Z"/><path d="M183.85,131.72a8.06,8.06,0,0,1-16.11,0V117.8H162v13.92a13.8,13.8,0,0,0,27.6,0V117.8h-5.74Z"/><path d="M86.62,117.86a12.59,12.59,0,0,0-12.57,12.57v15.22H79.8V130.43a6.82,6.82,0,1,1,13.64,0v15.22h5.75V130.43A12.59,12.59,0,0,0,86.62,117.86Z"/><path d="M123.6,120.54a13.78,13.78,0,1,0,5.75,11.18V111.29H123.6Zm-8,19.23a8.05,8.05,0,1,1,8-8.05A8.07,8.07,0,0,1,115.55,139.77Z"/><path d="M207,117.92a13.71,13.71,0,0,0-8,2.62v-9.25h-5.75v20.43a13.8,13.8,0,1,0,13.8-13.8Zm0,21.85a8.05,8.05,0,1,1,8.06-8.05A8.06,8.06,0,0,1,207,139.77Z"/><path d="M251,133.64a13.56,13.56,0,0,0,.13-1.92c0-.44,0-.87-.06-1.3,0-.15,0-.3-.05-.45l0-.25a14.56,14.56,0,0,0-.48-2.1h0l0-.12s0-.07,0-.11-.06-.19-.1-.28a1.8,1.8,0,0,0-.08-.21c-.07-.19-.14-.39-.23-.58s-.25-.57-.39-.85l0-.09-.33-.59-.12-.21-.13-.2a13.66,13.66,0,0,0-6.09-5.27l-.24-.11-.28-.11-.56-.21-.16-.05a13.85,13.85,0,0,0-1.34-.37l-.27-.06h-.05l-.13,0a4.71,4.71,0,0,0-.52-.09c-.27,0-.53-.08-.8-.1h-.26c-.32,0-.65,0-1,0h0l-.68,0-.23,0-.45,0-.27,0-.39,0-.3.05-.35.06-.32.07-.33.08-.32.08-.3.09-.33.1-.29.1-.33.12-.27.11-.34.14-.24.11-.35.16-.21.11-.36.19-.17.1-.39.23-.08,0a11.68,11.68,0,0,0-1.16.83l-.3.24-.44.36-.55.52q-.27.27-.51.54l-.36.44-.25.3c-.29.38-.57.76-.83,1.17l0,.08-.23.39-.09.17-.2.36-.1.21c-.06.11-.11.23-.17.35l-.11.24c-.05.11-.09.23-.14.34s-.07.18-.1.26-.09.23-.13.34l-.09.28-.11.33c0,.1-.06.21-.08.31l-.09.32c0,.11,0,.22-.07.33s0,.21-.07.31-.05.24-.07.36,0,.2,0,.3,0,.25,0,.38,0,.19,0,.28l0,.45c0,.07,0,.15,0,.23s0,.45,0,.68h0a13.79,13.79,0,0,0,5,10.65l.52.41a15.41,15.41,0,0,0,1.68,1.07,13.68,13.68,0,0,0,1.83.83c.43.16.86.29,1.3.41a14,14,0,0,0,3.44.43h0c.33,0,.67,0,1,0h.2c.33,0,.66-.07,1-.13h.06c.34-.05.67-.12,1-.2h0c.35-.09.68-.18,1-.29h0a15.17,15.17,0,0,0,1.95-.82l0,0a14.6,14.6,0,0,0,1.78-1.09l0,0c.27-.2.53-.4.78-.62l.11-.09c.24-.21.47-.42.69-.64l0,0c.22-.22.43-.44.63-.67l.17-.2c.19-.22.37-.45.54-.68l.15-.21.4-.6c.05-.07.1-.14.14-.21.15-.25.29-.5.43-.76l.13-.25c.13-.27.26-.55.38-.83a.42.42,0,0,0,0-.1c.12-.28.22-.56.32-.85l0-.1h-6.31l-.08.12c0,.05-.07.11-.11.17l-.36.47-.11.13c-.12.14-.24.28-.37.41l-.17.17c-.14.14-.29.27-.44.4l-.18.14-.35.27-.23.16-.5.3-.24.12a2.64,2.64,0,0,1-.38.18,1.75,1.75,0,0,1-.24.11,4.79,4.79,0,0,1-.57.21l-.22.07-.51.13-.17,0-.67.1-.18,0c-.24,0-.48,0-.73,0a8,8,0,0,1-4.41-1.32l-.53-.38a9.32,9.32,0,0,1-.75-.66,7.91,7.91,0,0,1-.75-.88,8.18,8.18,0,0,1-1.25-2.42,1.36,1.36,0,0,0,0-.17c0-.1,0-.2-.06-.3H251ZM230.3,127.9a.31.31,0,0,1,0-.1.41.41,0,0,1,.05-.09,8.14,8.14,0,0,1,.66-1,5.42,5.42,0,0,1,.63-.72,5.49,5.49,0,0,1,.43-.4l.4-.32a10.71,10.71,0,0,1,.9-.59l.14-.07a7.7,7.7,0,0,1,1-.47l.25-.09.38-.12.35-.09.34-.07.45-.07.28,0a6.28,6.28,0,0,1,.75,0h0c.25,0,.48,0,.72,0l.24,0,.48.07.46.11.46.12.27.09c.23.08.44.16.66.26l.06,0a8.16,8.16,0,0,1,3.71,3.45l0,0Z"/><path d="M145.7,123.67a8.05,8.05,0,0,1,7.93,6.69h5.81a13.82,13.82,0,1,0-.32,4.58h-6a8.05,8.05,0,1,1-7.38-11.27Z"/><path d="M132.05,67V63.65a1.14,1.14,0,0,0-2.27,0V67a3.21,3.21,0,1,0,2.27,0Z"/><path d="M168.61,66.49q0-18.33,0-36.64a10.9,10.9,0,0,0-5.75-9.94c-10-5.73-20.4-11.7-31.71-18.24a11.17,11.17,0,0,0-11.72,0q-15.84,9.15-31.71,18.25a10.81,10.81,0,0,0-5.72,10c0,4.19,0,8.38,0,12.56V53.09c0,4.46,0,8.93,0,13.39a10.44,10.44,0,0,0,5.39,9.59l12.91,7.42,19.5,11.22a10.49,10.49,0,0,0,11,0L163,76.22A10.71,10.71,0,0,0,168.61,66.49Zm-9-40.94.14.09L134.35,39a19.53,19.53,0,0,0-6.48-2V7.28h0C139.21,13.84,149.6,19.82,159.63,25.55ZM121.37,8V37.16a19.36,19.36,0,0,0-5,1.74L90.73,25.69c.08-.05.14-.1.22-.14Q106.17,16.82,121.37,8ZM90.64,70.44a4,4,0,0,1-2.14-3.93c0-4.47,0-9,0-13.43V42.44c0-3.53,0-7.06,0-10.6l22.17,11.43a19.72,19.72,0,0,0-5.17,13.3V79l-2-1.12Zm36.91,18.65a4,4,0,0,1-4.5,0L111.9,82.67V56.57a13.41,13.41,0,1,1,26.81,0v26.1Zm32.18-18.5L145.11,79V56.57A19.71,19.71,0,0,0,140,43.34l22.1-11.59q0,17.37,0,34.74A4.26,4.26,0,0,1,159.73,70.59Z"/></g></g></svg>